# xmcd
#
# Track frame offsets:
#	150
#	30382
#	50110
#	72367
#	90167
#	107120
#	122422
#	137127
#	153630
#
# Disc length: 2281 seconds
#
# Revision: 0
# Processed by: cddbd v1.4PL0 Copyright (c) Steve Scherf et al.
# Submitted via: dBpowerAMP V4.0
#
DISCID=7308e709
DTITLE=Cher - Take Me Home
DYEAR=1900
DGENRE=Country
TTITLE0=Take Me Home
TTITLE1=Wasn't It Good
TTITLE2=Say The Word
TTITLE3=Happy Was The Day We Met
TTITLE4=Get Down (Guitar Groupie)
TTITLE5=Love and Pain
TTITLE6=Let This Be A Lesson To You
TTITLE7=It's Too Late To Love Me Now
TTITLE8=My Song (Too Far Gone)
EXTD=
EXTT0=
EXTT1=
EXTT2=
EXTT3=
EXTT4=
EXTT5=
EXTT6=
EXTT7=
EXTT8=
PLAYORDER=
